<?xml version="1.0" standalone="no"?>
<!DOCTYPE svg PUBLIC "-//W3C//DTD SVG 20010904//EN"
 "http://www.w3.org/TR/2001/REC-SVG-20010904/DTD/svg10.dtd">
<svg version="1.0" xmlns="http://www.w3.org/2000/svg"
 width="270.000000pt" height="350.000000pt" viewBox="0 0 270.000000 350.000000"
 preserveAspectRatio="xMidYMid meet" fill="#FFBE15">

<g transform="translate(0.000000,350.000000) scale(0.100000,-0.100000)"
fill="#FFF" stroke="none">
<path d="M815 3150 c3 -5 17 -10 31 -10 13 0 24 5 24 10 0 6 -14 10 -31 10
-17 0 -28 -4 -24 -10z"/>
<path d="M845 3124 c-13 -5 -7 -305 6 -319 5 -5 9 55 9 158 0 92 -1 167 -2
166 -2 0 -7 -2 -13 -5z"/>
<path d="M1595 2198 c17 -11 65 -56 108 -100 42 -43 77 -76 77 -72 0 3 -13 25
-30 49 -38 55 -112 120 -153 134 l-32 11 30 -22z"/>
<path d="M1278 2179 c-21 -12 -24 -49 -6 -67 17 -17 55 -15 62 4 11 29 6 53
-13 64 -23 12 -22 12 -43 -1z"/>
<path d="M1434 2180 c-28 -11 -36 -35 -23 -64 14 -31 42 -38 69 -19 43 30 3
102 -46 83z"/>
<path d="M1149 2124 c-17 -21 0 -49 31 -49 31 0 48 28 31 49 -8 9 -21 16 -31
16 -10 0 -23 -7 -31 -16z"/>
<path d="M1567 2112 c-28 -30 -22 -65 14 -81 26 -12 32 -11 50 4 24 23 24 50
-1 75 -25 25 -42 25 -63 2z"/>
<path d="M1060 2065 c-19 -23 -8 -50 20 -50 19 0 26 6 28 24 5 35 -26 53 -48
26z"/>
<path d="M1303 1973 c9 -2 23 -2 30 0 6 3 -1 5 -18 5 -16 0 -22 -2 -12 -5z"/>
<path d="M1398 1973 c6 -2 18 -2 25 0 6 3 1 5 -13 5 -14 0 -19 -2 -12 -5z"/>
<path d="M1144 1895 c-112 -113 -119 -282 -15 -397 45 -51 127 -98 166 -97 11
0 -2 7 -29 15 -69 22 -156 110 -181 183 -35 107 -6 221 77 301 22 22 38 40 34
40 -4 0 -27 -20 -52 -45z"/>
<path d="M1562 1882 c59 -67 82 -132 76 -215 -3 -34 -8 -71 -12 -82 -3 -11 0
-6 8 10 34 68 8 214 -47 275 -48 52 -69 63 -25 12z"/>
<path d="M1450 1420 c-25 -11 -39 -19 -32 -19 16 -1 82 26 82 33 0 4 -1 6 -2
5 -2 -1 -23 -9 -48 -19z"/>
<path d="M1333 1393 c9 -2 25 -2 35 0 9 3 1 5 -18 5 -19 0 -27 -2 -17 -5z"/>
<path d="M1000 1320 c0 -5 -10 -10 -22 -10 -20 -1 -21 -2 -6 -11 12 -7 24 -6
38 1 24 13 26 30 5 30 -8 0 -15 -4 -15 -10z"/>
<path d="M1160 1283 c0 -5 5 -15 10 -23 8 -12 10 -11 10 8 0 12 -4 22 -10 22
-5 0 -10 -3 -10 -7z"/>
<path d="M956 1242 c-10 -28 17 -62 48 -62 19 0 19 1 -4 13 -15 8 -27 24 -30
42 -6 29 -6 29 -14 7z"/>
<path d="M1360 1211 c0 -11 4 -22 9 -25 4 -3 6 6 3 19 -5 30 -12 33 -12 6z"/>
<path d="M1435 800 c3 -5 8 -10 11 -10 2 0 4 5 4 10 0 6 -5 10 -11 10 -5 0 -7
-4 -4 -10z"/>
<path d="M1160 769 c0 -5 5 -7 10 -4 6 3 10 8 10 11 0 2 -4 4 -10 4 -5 0 -10
-5 -10 -11z"/>
<path d="M1350 770 c0 -5 5 -10 10 -10 6 0 10 5 10 10 0 6 -4 10 -10 10 -5 0
-10 -4 -10 -10z"/>
<path d="M1130 670 c0 -5 5 -10 10 -10 6 0 10 5 10 10 0 6 -4 10 -10 10 -5 0
-10 -4 -10 -10z"/>
<path d="M1240 670 c0 -5 5 -10 11 -10 5 0 7 5 4 10 -3 6 -8 10 -11 10 -2 0
-4 -4 -4 -10z"/>
<path d="M1350 670 c0 -5 5 -10 11 -10 5 0 7 5 4 10 -3 6 -8 10 -11 10 -2 0
-4 -4 -4 -10z"/>
<path d="M1460 669 c0 -5 5 -7 10 -4 6 3 10 8 10 11 0 2 -4 4 -10 4 -5 0 -10
-5 -10 -11z"/>
<path d="M1350 569 c0 -5 5 -7 10 -4 6 3 10 8 10 11 0 2 -4 4 -10 4 -5 0 -10
-5 -10 -11z"/>
<path d="M1350 519 c0 -5 5 -7 10 -4 6 3 10 8 10 11 0 2 -4 4 -10 4 -5 0 -10
-5 -10 -11z"/>
<path d="M1240 500 c0 -5 5 -10 11 -10 5 0 7 5 4 10 -3 6 -8 10 -11 10 -2 0
-4 -4 -4 -10z"/>
</g>
</svg>
